<?xml version="1.0" encoding="iso-8859-1"?>
<!-- Generator: Adobe Illustrator 19.0.0, SVG Export Plug-In . SVG Version: 6.00 Build 0)  -->
<svg version="1.1" id="Layer_1" xmlns="http://www.w3.org/2000/svg" xmlns:xlink="http://www.w3.org/1999/xlink" x="0px" y="0px"
	 viewBox="0 0 406.245 406.245" style="enable-background:new 0 0 406.245 406.245;" xml:space="preserve">
<g>
	<g>
		<g>
			<path d="M345.102,249.537c-0.236-16.72-6.655-31.964-17.054-43.573c2.771-8.489,4.189-17.343,4.189-26.394
				c0-46.93-38.176-85.11-85.101-85.11c-6.834,0-13.637,0.813-20.219,2.418c-4.024,0.981-6.491,5.039-5.511,9.063
				c0.981,4.024,5.041,6.492,9.063,5.51c5.42-1.321,11.027-1.991,16.666-1.991c38.653,0,70.101,31.451,70.101,70.11
				c0,5.255-0.585,10.424-1.719,15.464c-10.648-7.172-23.461-11.365-37.237-11.365c-8.241,0-16.416,1.536-24.063,4.488
				c-5.886-17.846-16.906-33.862-31.646-45.778c-17.405-14.072-39.34-21.822-61.764-21.822c-52.788,0-95.993,41.821-98.224,94.069
				c-16.798,4.977-31.923,15.035-43.06,28.741C6.934,258.862,0,278.412,0,298.414c0,48.173,39.192,87.365,87.365,87.365H315.23
				c39.365,0,71.392-32.026,71.392-71.392C386.622,286.511,370.144,261.102,345.102,249.537z M315.23,370.779H87.365
				C47.463,370.779,15,338.316,15,298.414c0-16.567,5.741-32.758,16.166-45.589c10.281-12.654,24.654-21.553,40.47-25.058
				c3.482-0.771,5.939-3.889,5.876-7.455l-0.003-0.191c-0.008-0.417-0.016-0.833-0.016-1.251c0-45.94,37.375-83.314,83.314-83.314
				c19.278,0,37.375,6.393,52.334,18.486c14.536,11.752,24.806,28.201,28.914,46.315c0.523,2.307,2.104,4.231,4.265,5.193
				c2.163,0.962,4.648,0.848,6.713-0.308c7.686-4.302,16.416-6.576,25.247-6.576c28.578,0,51.828,23.25,51.828,51.828
				c0,1.028-0.042,2.134-0.132,3.481c-0.221,3.312,1.762,6.375,4.873,7.531c21.994,8.165,36.771,29.416,36.771,52.88
				C371.622,345.482,346.325,370.779,315.23,370.779z"/>
			<path d="M199.075,116.621c0.088,0.208,0.053,0.124,0.01,0.021c1.795,4.212,7.027,5.877,10.924,3.436
				c4.044-2.533,4.573-8.262,1.296-11.638c-2.589-2.517-6.645-2.91-9.621-0.824c-2.839,1.991-3.927,5.788-2.614,8.99
				C199.025,116.497,198.983,116.4,199.075,116.621z"/>
			<path d="M247.141,79.065c4.143,0,7.5-3.358,7.5-7.5V27.966c0-4.142-3.357-7.5-7.5-7.5s-7.5,3.358-7.5,7.5v43.599
				C239.641,75.707,242.999,79.065,247.141,79.065z"/>
			<path d="M323.511,110.699c1.919,0,3.839-0.732,5.303-2.197l30.83-30.829c2.93-2.929,2.93-7.677,0.001-10.606
				c-2.929-2.929-7.678-2.929-10.606,0l-30.83,30.829c-2.93,2.929-2.93,7.677-0.001,10.606
				C319.672,109.967,321.591,110.699,323.511,110.699z"/>
			<path d="M398.745,172.068h-43.6c-4.143,0-7.5,3.358-7.5,7.5c0,4.142,3.357,7.5,7.5,7.5h43.6c4.143,0,7.5-3.358,7.5-7.5
				C406.245,175.426,402.887,172.068,398.745,172.068z"/>
			<path d="M165.468,108.501c1.464,1.464,3.384,2.197,5.303,2.197s3.839-0.732,5.303-2.197c2.929-2.929,2.929-7.678,0-10.606
				l-30.83-30.829c-2.929-2.929-7.678-2.929-10.606,0c-2.929,2.929-2.929,7.678,0,10.606L165.468,108.501z"/>
		</g>
	</g>
</g>
<g>
</g>
<g>
</g>
<g>
</g>
<g>
</g>
<g>
</g>
<g>
</g>
<g>
</g>
<g>
</g>
<g>
</g>
<g>
</g>
<g>
</g>
<g>
</g>
<g>
</g>
<g>
</g>
<g>
</g>
</svg>
